<svg id="Capa_1" enable-background="new 0 0 512 512" height="512" viewBox="0 0 512 512" width="512" xmlns="http://www.w3.org/2000/svg"><g><g><g><path d="m301 497h-90v-75h-211v-60c0-16.569 14.431-30 31-30h451c16.569 0 30 13.431 30 30v60h-211z" fill="#edf5ff"/></g></g><path d="m301 422h211v-60c0-16.569-13.431-30-30-30h-226v165h45z" fill="#d5e8fe"/><g><path d="m512 362h-512v-362h512z" fill="#ff6c6c"/></g><path d="m256 0h256v362h-256z" fill="#e63950"/><g id="Manage_1_"><path d="m121 482h270v30h-270z" fill="#d5e8fe"/><g><path d="m147.1 269.801c-3.6.899-7.2 1.199-11.1 1.199-41.4 0-75-40.499-75-90 0-45 27.9-82.5 63.9-88.801 0 0 56.1 32.401 56.1 51.301s-15 37.5-15 37.5-15 18.6-15 37.5-3.9 51.301-3.9 51.301z" fill="#704c55"/></g><g><path d="m301 106h150v30h-150z" fill="#ffe6b3"/></g><g><path d="m301 166h150v30h-150z" fill="#ffe6b3"/></g><g><path d="m241 166h30v30h-30z" fill="#fff7cc"/></g><g><path d="m301 226h150v30h-150z" fill="#ffe6b3"/></g><g><g><g><path d="m241 226h30v30h-30z" fill="#fff7cc"/></g></g></g><g><path d="m241 106h30v30h-30z" fill="#fff7cc"/></g></g><path d="m136 91c-3.9 0-7.5.3-11.1 1.199l11.1 13.801s15 18.6 15 37.5-15 37.5-15 37.5-15 18.6-15 37.5 15 37.5 15 37.5l11.1 13.801c36-6.301 63.9-43.801 63.9-88.801 0-49.501-33.6-90-75-90z" fill="#5a344b"/><g><path d="m256 482h135v30h-135z" fill="#9bcff9"/><g fill="#ffe6b3"><path d="m256 226h15v30h-15z"/><path d="m256 166h15v30h-15z"/><path d="m256 106h15v30h-15z"/></g></g></g></svg>