<?xml version="1.0" encoding="iso-8859-1"?>
<!-- Generator: Adobe Illustrator 19.0.0, SVG Export Plug-In . SVG Version: 6.00 Build 0)  -->
<svg version="1.1" id="Capa_1" xmlns="http://www.w3.org/2000/svg" xmlns:xlink="http://www.w3.org/1999/xlink" x="0px" y="0px"
	 viewBox="0 0 409.6 409.6" style="enable-background:new 0 0 409.6 409.6;" xml:space="preserve">
<path style="fill:#64798A;" d="M389.76,353.445H287.486c-10.957,0-19.84-8.883-19.84-19.84V73.652c0-10.957,8.883-19.84,19.84-19.84
	H389.76c10.957,0,19.84,8.883,19.84,19.84v259.953C409.6,344.563,400.717,353.445,389.76,353.445z"/>
<g>
	<rect x="290.627" y="301.855" style="fill:#D5D6DB;" width="96" height="23.491"/>
	<rect x="290.627" y="259.379" style="fill:#D5D6DB;" width="96" height="23.491"/>
	<rect x="290.627" y="217.498" style="fill:#D5D6DB;" width="96" height="23.491"/>
	<circle style="fill:#D5D6DB;" cx="338.637" cy="104.873" r="19.338"/>
</g>
<rect x="111.478" y="310.682" style="fill:#DC8744;" width="86.538" height="27.438"/>
<path style="fill:#3A556A;" d="M309.487,91.513c0-4.768-3.865-8.633-8.633-8.633H8.633C3.865,82.88,0,86.745,0,91.513v179.606
	h309.487V91.513z"/>
<rect x="16.881" y="99.763" style="fill:#27A2DB;" width="275.727" height="171.356"/>
<path style="fill:#3A556A;" d="M0,271.119v33.845c0,4.768,3.865,8.633,8.633,8.633h292.221c4.768,0,8.633-3.865,8.633-8.633v-33.845
	H0z"/>
<circle style="fill:#D5D6DB;" cx="154.726" cy="292.352" r="11.735"/>
<path style="fill:#2F4859;" d="M208.508,336.143H100.98c-10.849,0-19.645,8.795-19.645,19.644v0h146.817v0
	C228.152,344.938,219.357,336.143,208.508,336.143z"/>
<g>
</g>
<g>
</g>
<g>
</g>
<g>
</g>
<g>
</g>
<g>
</g>
<g>
</g>
<g>
</g>
<g>
</g>
<g>
</g>
<g>
</g>
<g>
</g>
<g>
</g>
<g>
</g>
<g>
</g>
</svg>
