<svg id="Capa_1" enable-background="new 0 0 512 512" height="512" viewBox="0 0 512 512" width="512" xmlns="http://www.w3.org/2000/svg"><g><path d="m319.21 445.892c-9.486-6.328-15.263-17.521-15.263-29.575v-30.161l-4.379-4.181h-82.929l-8.585 4.181v30.161c0 12.054-5.776 23.247-15.263 29.575l-21.257 14.18 4.414 4.06h160.965l3.556-4.06z" fill="#4a80aa"/><path d="m236.69 445.892c9.487-6.328 15.263-17.521 15.263-29.575v-30.161l8.585-4.181h-43.9l-8.585 4.181v30.161c0 12.054-5.776 23.247-15.263 29.575l-21.257 14.18 4.414 4.06h43.9l-4.414-4.06z" fill="#407093"/><g><path d="m482.311 19.791h-452.622c-16.371 0-29.689 13.318-29.689 29.689v306.986c0 16.371 13.318 29.689 29.689 29.689h452.622c16.371 0 29.689-13.318 29.689-29.689v-306.986c0-16.371-13.318-29.689-29.689-29.689z" fill="#3f6d8e"/></g><path d="m33.652 356.467v-306.987c0-16.371 13.318-29.689 29.689-29.689h-33.652c-16.371 0-29.689 13.318-29.689 29.689v306.986c0 16.371 13.318 29.689 29.689 29.689h33.652c-16.37.001-29.689-13.317-29.689-29.688z" fill="#365e7d"/><path d="m358.16 460.072h-204.32c-5.689 0-10.301 4.612-10.301 10.301v11.535c0 5.69 4.612 10.301 10.301 10.301h204.32c5.689 0 10.301-4.612 10.301-10.301v-11.535c0-5.69-4.612-10.301-10.301-10.301z" fill="#3f6d8e"/><path d="m187.439 481.908v-11.535c0-5.69 4.612-10.301 10.301-10.301h-43.9c-5.689 0-10.301 4.612-10.301 10.301v11.535c0 5.69 4.612 10.301 10.301 10.301h43.9c-5.689 0-10.301-4.612-10.301-10.301z" fill="#365e7d"/><path d="m479.863 88.659h-447.726v261.088c0 2.36 1.912 4.272 4.272 4.272h439.182c2.359 0 4.272-1.912 4.272-4.272z" fill="#e4f6ff"/><path d="m60.303 349.747c0-7.704 0-179.809 0-261.088h-28.166v261.088c0 2.36 1.912 4.272 4.272 4.272h28.166c-2.36-.001-4.272-1.912-4.272-4.272z" fill="#d3effb"/><path d="m81.884 183.058-8.494 7.223v113.666c0 5.213 4.226 9.44 9.44 9.44h89.11c5.213 0 9.44-4.226 9.44-9.44v-113.666l-7.149-7.223z" fill="#d3effb"/><path d="m102.511 303.947v-113.666l8.494-7.223h-29.121l-8.494 7.223v113.666c0 5.213 4.226 9.44 9.44 9.44h29.121c-5.214-.001-9.44-4.227-9.44-9.44z" fill="#b1e4f9"/><path d="m171.94 154.225h-89.11c-5.213 0-9.44 4.226-9.44 9.44v26.617h107.989v-26.617c0-5.214-4.226-9.44-9.439-9.44z" fill="#90d8f9"/><path d="m111.951 154.225h-29.122c-5.213 0-9.44 4.226-9.44 9.44v26.617h29.121v-26.617c.001-5.214 4.227-9.44 9.441-9.44z" fill="#75cef9"/><path d="m348.26 163.94c-6.094 0-12.004.784-17.639 2.25v4.589s49.747 12.476 49.747 63.026-46.547 63.428-46.547 63.428l-3.2 4.187c5.635 1.466 11.545 2.251 17.639 2.251 38.586 0 69.866-31.28 69.866-69.866 0-38.585-31.28-69.865-69.866-69.865z" fill="#ffc250"/><path d="m81.884 51.928v40.852c0 13.737 11.136 24.874 24.874 24.874 13.737 0 24.874-11.136 24.874-24.874v-40.852z" fill="#ffaa5b"/><path d="m131.632 51.928v40.852c0 13.737 11.136 24.874 24.874 24.874 13.737 0 24.874-11.136 24.874-24.874v-40.852z" fill="#dd636e"/><path d="m181.379 51.928v40.852c0 13.737 11.136 24.874 24.874 24.874s24.874-11.136 24.874-24.874v-40.852z" fill="#ffaa5b"/><path d="m231.126 51.928v40.852c0 13.737 11.136 24.874 24.874 24.874 13.737 0 24.874-11.136 24.874-24.874v-40.852z" fill="#dd636e"/><path d="m280.874 51.928v40.852c0 13.737 11.136 24.874 24.874 24.874 13.737 0 24.874-11.136 24.874-24.874v-40.852z" fill="#ffaa5b"/><path d="m330.621 51.928v40.852c0 13.737 11.136 24.874 24.874 24.874 13.737 0 24.874-11.136 24.874-24.874v-40.852z" fill="#dd636e"/><path d="m380.368 51.928v40.852c0 13.737 11.136 24.874 24.874 24.874s24.874-11.136 24.874-24.874v-40.852z" fill="#ffaa5b"/><path d="m32.137 60.089v32.69c0 13.737 11.136 24.874 24.874 24.874s24.874-11.136 24.874-24.874v-40.851h-41.586c-4.508 0-8.162 3.654-8.162 8.161z" fill="#dd636e"/><path d="m471.702 51.928h-41.586v40.852c0 13.737 11.137 24.874 24.874 24.874s24.874-11.136 24.874-24.874v-32.69c-.001-4.508-3.655-8.162-8.162-8.162z" fill="#dd636e"/><path d="m106.758 92.78v-40.852h-24.874v40.852c0 13.737 11.136 24.874 24.874 24.874 4.532 0 8.777-1.218 12.437-3.336-7.433-4.302-12.437-12.333-12.437-21.538z" fill="#ff9838"/><path d="m156.505 92.78v-40.852h-24.874v40.852c0 13.737 11.136 24.874 24.874 24.874 4.532 0 8.777-1.218 12.437-3.336-7.432-4.302-12.437-12.333-12.437-21.538z" fill="#da4a54"/><path d="m206.253 92.78v-40.852h-24.874v40.852c0 13.737 11.136 24.874 24.874 24.874 4.532 0 8.777-1.218 12.437-3.336-7.433-4.302-12.437-12.333-12.437-21.538z" fill="#ff9838"/><path d="m256 92.78v-40.852h-24.874v40.852c0 13.737 11.136 24.874 24.874 24.874 4.532 0 8.777-1.218 12.437-3.336-7.433-4.302-12.437-12.333-12.437-21.538z" fill="#da4a54"/><path d="m305.747 92.78v-40.852h-24.874v40.852c0 13.737 11.136 24.874 24.874 24.874 4.532 0 8.777-1.218 12.437-3.336-7.433-4.302-12.437-12.333-12.437-21.538z" fill="#ff9838"/><path d="m355.495 92.78v-40.852h-24.874v40.852c0 13.737 11.136 24.874 24.874 24.874 4.532 0 8.777-1.218 12.437-3.336-7.433-4.302-12.437-12.333-12.437-21.538z" fill="#da4a54"/><path d="m405.242 92.78v-40.852h-24.874v40.852c0 13.737 11.136 24.874 24.874 24.874 4.532 0 8.777-1.218 12.437-3.336-7.433-4.302-12.437-12.333-12.437-21.538z" fill="#ff9838"/><path d="m57.011 92.78v-40.852h-16.712c-4.508 0-8.161 3.654-8.161 8.161v32.69c0 13.737 11.136 24.874 24.874 24.874 4.532 0 8.777-1.218 12.437-3.336-7.434-4.301-12.438-12.332-12.438-21.537z" fill="#da4a54"/><path d="m454.989 92.78v-40.852h-24.874v40.852c0 13.737 11.137 24.874 24.874 24.874 4.532 0 8.777-1.218 12.437-3.336-7.433-4.302-12.437-12.333-12.437-21.538z" fill="#da4a54"/><g fill="#3f6d8e"><path d="m148.635 270.982h-42.5c-4.267 0-7.726 3.459-7.726 7.726s3.459 7.726 7.726 7.726h42.5c4.267 0 7.726-3.459 7.726-7.726s-3.459-7.726-7.726-7.726z"/><path d="m148.635 242.65h-42.5c-4.267 0-7.726 3.459-7.726 7.726 0 4.268 3.459 7.726 7.726 7.726h42.5c4.267 0 7.726-3.459 7.726-7.726s-3.459-7.726-7.726-7.726z"/><path d="m148.635 214.318h-42.5c-4.267 0-7.726 3.459-7.726 7.726s3.459 7.726 7.726 7.726h42.5c4.267 0 7.726-3.459 7.726-7.726s-3.459-7.726-7.726-7.726z"/></g><circle cx="312.982" cy="233.805" fill="#ffe07d" r="69.865"/><path d="m267.583 233.805c0-34.41 24.883-62.988 57.632-68.776-3.974-.702-8.057-1.09-12.233-1.09-38.586 0-69.865 31.28-69.865 69.865s31.28 69.865 69.865 69.865c4.176 0 8.259-.387 12.233-1.09-32.749-5.785-57.632-34.364-57.632-68.774z" fill="#ffc250"/><path d="m320.708 226.096v-14.195h14.134c4.267 0 7.726-3.459 7.726-7.726s-3.459-7.726-7.726-7.726h-14.134v-5.664c0-4.268-3.459-7.726-7.726-7.726s-7.726 3.459-7.726 7.726v5.681c-12.115.362-21.86 10.324-21.86 22.525s9.745 22.161 21.86 22.524v14.195h-14.134c-4.267 0-7.726 3.459-7.726 7.726s3.459 7.726 7.726 7.726h14.134v5.665c0 4.268 3.459 7.726 7.726 7.726s7.726-3.459 7.726-7.726v-5.682c12.115-.362 21.861-10.323 21.861-22.524-.001-12.201-9.746-22.163-21.861-22.525zm-21.86-7.106c0-3.679 2.817-6.711 6.407-7.055v14.109c-3.59-.344-6.407-3.376-6.407-7.054zm21.86 36.685v-14.109c3.591.344 6.408 3.375 6.408 7.055 0 3.678-2.818 6.71-6.408 7.054z" fill="#ffc250"/></g></svg>