<svg height="458" viewBox="0 0 826 458" width="826" xmlns="http://www.w3.org/2000/svg" xmlns:xlink="http://www.w3.org/1999/xlink"><clipPath id="a"><path d="m0 0h826v458h-826z"/></clipPath><g clip-path="url(#a)"><path d="m0 0h826v458h-826z" fill="#fff"/><path d="m0 0h827v459h-827z" fill="#fff"/><path d="m0 0h767v172h-767z" fill="#efefef" transform="translate(30 254)"/><g fill="none" stroke-linecap="round"><path d="m0 0h43" stroke="#0d6efd" stroke-width="5" transform="translate(296.5 295.5)"/><path d="m0 0h73" stroke="#707070" stroke-width="3" transform="translate(296.5 319.5)"/><path d="m0 0h73" stroke="#707070" stroke-width="3" transform="translate(296.5 338.5)"/><path d="m0 0h73" stroke="#707070" stroke-width="3" transform="translate(296.5 356.5)"/><path d="m0 0h43" stroke="#0d6efd" stroke-width="5" transform="translate(454.5 295.5)"/><path d="m0 0h73" stroke="#707070" stroke-width="3" transform="translate(454.5 319.5)"/><path d="m0 0h73" stroke="#707070" stroke-width="3" transform="translate(454.5 338.5)"/><path d="m0 0h73" stroke="#707070" stroke-width="3" transform="translate(454.5 356.5)"/><path d="m0 0h43" stroke="#0d6efd" stroke-width="5" transform="translate(612.5 295.5)"/><path d="m0 0h73" stroke="#707070" stroke-width="3" transform="translate(612.5 319.5)"/><path d="m0 0h73" stroke="#707070" stroke-width="3" transform="translate(612.5 338.5)"/><path d="m0 0h73" stroke="#707070" stroke-width="3" transform="translate(612.5 356.5)"/></g><circle cx="8.5" cy="8.5" fill="#0d6efd" r="8.5" transform="translate(686 399)"/><circle cx="8.5" cy="8.5" fill="#0d6efd" r="8.5" transform="translate(711 399)"/><circle cx="8.5" cy="8.5" fill="#0d6efd" r="8.5" transform="translate(736 399)"/><path d="m767 0h-767" fill="none" stroke="#ccc" transform="translate(30.5 387.5)"/><path d="m0 0h43" fill="none" stroke="#707070" stroke-linecap="round" stroke-width="5" transform="translate(55.5 407.5)"/><path d="m0 0h39v39h-39z" fill="#fff" transform="translate(60 288)"/><path d="m0 0h133" fill="none" stroke="#707070" stroke-width="3" transform="translate(60.5 349.5)"/><circle cx="8.5" cy="8.5" fill="#0d6efd" r="8.5" transform="translate(661 399)"/></g></svg>