<svg xmlns="http://www.w3.org/2000/svg" viewBox="0 0 1366 768"><defs><style>.cls-1,.cls-5{fill:#fff;}.cls-2{fill:none;}.cls-3{fill:#e6e6e6;}.cls-4{fill:#5f7fff;}.cls-5{stroke:#5f7fff;stroke-miterlimit:10;}</style></defs><g id="Layer_3" data-name="Layer 3"><rect class="cls-1" width="1366" height="768"/></g><g id="Layer_2" data-name="Layer 2"><rect class="cls-2" width="1366" height="768"/><rect class="cls-3" x="922" y="205" width="280" height="298" rx="30"/><path d="M989.49,379.2l19.9-52.22a8.7,8.7,0,0,1,16.11-.36l13,30a8.69,8.69,0,0,0,13.39,3.35l22.84-18.15a8.7,8.7,0,0,1,12.57,1.86l23.28,33.7a8.7,8.7,0,0,1-7.16,13.65H997.62A8.7,8.7,0,0,1,989.49,379.2Z"/><circle cx="1097" cy="318" r="15"/></g><g id="Layer_1" data-name="Layer 1"><rect class="cls-3" x="154" y="205" width="214" height="30" rx="15"/><rect x="153" y="278" width="557" height="40" rx="20"/><rect x="153" y="334" width="269" height="40" rx="20"/><rect class="cls-3" x="153" y="427" width="530" height="30" rx="15"/><rect class="cls-3" x="154" y="473" width="386" height="30" rx="15"/><rect class="cls-4" x="153" y="556" width="125" height="43" rx="11"/><rect class="cls-5" x="305.5" y="556.5" width="125" height="43" rx="11"/></g></svg>